# xmcd
#
# Track frame offsets:
#	150
#	15760
#	38447
#	54122
#	76347
#	96042
#	111245
#	129322
#	156242
#	173377
#
# Disc length: 2558 seconds
# Revision: 0
# Processed by: cddbd v1.5.2PL0 Copyright (c) Steve Scherf et al.
# Submitted via: dBpowerAMP V12.0
#
DISCID=5d09fc0a
DTITLE=Stevie Wonder - Fulfillingness' First Finale
DYEAR=1974
DGENRE=Blues
TTITLE0=Smile Please
TTITLE1=Heaven Is 10 Zillion Light Years Away
TTITLE2=Too Shy to Say
TTITLE3=Boogie on Reggae Woman
TTITLE4=Creepin'
TTITLE5=You Haven't Done Nothin'
TTITLE6=It Ain't No Use
TTITLE7=They Won't Go When I Go
TTITLE8=Bird of Beauty
TTITLE9=Please Don't Go
EXTD=
EXTT0=
EXTT1=
EXTT2=
EXTT3=
EXTT4=
EXTT5=
EXTT6=
EXTT7=
EXTT8=
EXTT9=
PLAYORDER=
